<?xml version="1.0" encoding="UTF-8"?>
<mxGraphModel dx="1422" dy="794" grid="1" gridSize="10" guides="1" tooltips="1" connect="1" arrows="1" fold="1" page="1" pageScale="1" pageWidth="827" pageHeight="1169" math="0" shadow="0">
  <root>
    <mxCell id="0"/>
    <mxCell id="1" parent="0"/>
    
    <!-- Actors/Layers -->
    <mxCell id="user_layer" value="PENGGUNA&amp;#xa;(Admin/Pegawai)" style="swimlane;html=1;startSize=40;horizontal=1;containerType=tree;fontSize=12;fontStyle=1;fillColor=#d5e8d4;strokeColor=#82b366;" vertex="1" parent="1">
      <mxGeometry x="40" y="40" width="160" height="1000" as="geometry"/>
    </mxCell>
    
    <mxCell id="ui_layer" value="ANTARMUKA PENGGUNA&amp;#xa;(User Interface)" style="swimlane;html=1;startSize=40;horizontal=1;containerType=tree;fontSize=12;fontStyle=1;fillColor=#dae8fc;strokeColor=#6c8ebf;" vertex="1" parent="1">
      <mxGeometry x="220" y="40" width="160" height="1000" as="geometry"/>
    </mxCell>
    
    <mxCell id="logic_layer" value="LOGIKA SISTEM&amp;#xa;(Business Logic)" style="swimlane;html=1;startSize=40;horizontal=1;containerType=tree;fontSize=12;fontStyle=1;fillColor=#fff2cc;strokeColor=#d6b656;" vertex="1" parent="1">
      <mxGeometry x="400" y="40" width="160" height="1000" as="geometry"/>
    </mxCell>
    
    <mxCell id="db_layer" value="BASIS DATA&amp;#xa;(Database)" style="swimlane;html=1;startSize=40;horizontal=1;containerType=tree;fontSize=12;fontStyle=1;fillColor=#ffe6cc;strokeColor=#d79b00;" vertex="1" parent="1">
      <mxGeometry x="580" y="40" width="160" height="1000" as="geometry"/>
    </mxCell>
    
    <mxCell id="rfid_layer" value="RFID READER&amp;#xa;(Hardware)" style="swimlane;html=1;startSize=40;horizontal=1;containerType=tree;fontSize=12;fontStyle=1;fillColor=#f8cecc;strokeColor=#b85450;" vertex="1" parent="1">
      <mxGeometry x="760" y="40" width="120" height="1000" as="geometry"/>
    </mxCell>

    <!-- 1. Mengakses Jatah Cuti -->
    <mxCell id="cuti_title" value="1. MENGAKSES JATAH CUTI" style="text;html=1;strokeColor=none;fillColor=none;align=center;verticalAlign=middle;whiteSpace=wrap;rounded=0;fontSize=14;fontStyle=1;" vertex="1" parent="1">
      <mxGeometry x="40" y="80" width="700" height="20" as="geometry"/>
    </mxCell>
    
    <mxCell id="cuti_user" value="Pegawai" style="rounded=1;whiteSpace=wrap;html=1;fillColor=#d5e8d4;strokeColor=#82b366;" vertex="1" parent="user_layer">
      <mxGeometry x="20" y="70" width="80" height="30" as="geometry"/>
    </mxCell>
    
    <mxCell id="cuti_ui1" value="Menu&amp;#xa;Pengajuan Cuti" style="rounded=1;whiteSpace=wrap;html=1;fillColor=#dae8fc;strokeColor=#6c8ebf;" vertex="1" parent="ui_layer">
      <mxGeometry x="20" y="70" width="80" height="30" as="geometry"/>
    </mxCell>
    
    <mxCell id="cuti_ui2" value="Popup&amp;#xa;Sisa Jatah" style="rounded=1;whiteSpace=wrap;html=1;fillColor=#dae8fc;strokeColor=#6c8ebf;" vertex="1" parent="ui_layer">
      <mxGeometry x="20" y="120" width="80" height="30" as="geometry"/>
    </mxCell>
    
    <mxCell id="cuti_logic" value="Cek Jatah&amp;#xa;&amp; Validasi" style="rounded=1;whiteSpace=wrap;html=1;fillColor=#fff2cc;strokeColor=#d6b656;" vertex="1" parent="logic_layer">
      <mxGeometry x="20" y="70" width="80" height="30" as="geometry"/>
    </mxCell>
    
    <mxCell id="cuti_db" value="tb_pengguna&amp;#xa;tb_detail" style="shape=cylinder3;whiteSpace=wrap;html=1;boundedLbl=1;backgroundOutline=1;size=15;fillColor=#ffe6cc;strokeColor=#d79b00;" vertex="1" parent="db_layer">
      <mxGeometry x="20" y="70" width="80" height="50" as="geometry"/>
    </mxCell>

    <!-- 2. Menambahkan Data Pegawai -->
    <mxCell id="pegawai_title" value="2. MENAMBAHKAN DATA PEGAWAI" style="text;html=1;strokeColor=none;fillColor=none;align=center;verticalAlign=middle;whiteSpace=wrap;rounded=0;fontSize=14;fontStyle=1;" vertex="1" parent="1">
      <mxGeometry x="40" y="180" width="700" height="20" as="geometry"/>
    </mxCell>
    
    <mxCell id="pegawai_user" value="Admin" style="rounded=1;whiteSpace=wrap;html=1;fillColor=#d5e8d4;strokeColor=#82b366;" vertex="1" parent="user_layer">
      <mxGeometry x="20" y="170" width="80" height="30" as="geometry"/>
    </mxCell>
    
    <mxCell id="pegawai_ui" value="Form Tambah&amp;#xa;Pegawai" style="rounded=1;whiteSpace=wrap;html=1;fillColor=#dae8fc;strokeColor=#6c8ebf;" vertex="1" parent="ui_layer">
      <mxGeometry x="20" y="170" width="80" height="30" as="geometry"/>
    </mxCell>
    
    <mxCell id="pegawai_logic" value="Validasi Data&amp;#xa;Pegawai" style="rounded=1;whiteSpace=wrap;html=1;fillColor=#fff2cc;strokeColor=#d6b656;" vertex="1" parent="logic_layer">
      <mxGeometry x="20" y="170" width="80" height="30" as="geometry"/>
    </mxCell>
    
    <mxCell id="pegawai_db" value="tb_pengguna" style="shape=cylinder3;whiteSpace=wrap;html=1;boundedLbl=1;backgroundOutline=1;size=15;fillColor=#ffe6cc;strokeColor=#d79b00;" vertex="1" parent="db_layer">
      <mxGeometry x="20" y="170" width="80" height="50" as="geometry"/>
    </mxCell>

    <!-- 3. Menambahkan Hari Libur -->
    <mxCell id="libur_title" value="3. MENAMBAHKAN HARI LIBUR" style="text;html=1;strokeColor=none;fillColor=none;align=center;verticalAlign=middle;whiteSpace=wrap;rounded=0;fontSize=14;fontStyle=1;" vertex="1" parent="1">
      <mxGeometry x="40" y="270" width="700" height="20" as="geometry"/>
    </mxCell>
    
    <mxCell id="libur_user" value="Admin" style="rounded=1;whiteSpace=wrap;html=1;fillColor=#d5e8d4;strokeColor=#82b366;" vertex="1" parent="user_layer">
      <mxGeometry x="20" y="260" width="80" height="30" as="geometry"/>
    </mxCell>
    
    <mxCell id="libur_ui" value="Form Atur&amp;#xa;Hari Libur" style="rounded=1;whiteSpace=wrap;html=1;fillColor=#dae8fc;strokeColor=#6c8ebf;" vertex="1" parent="ui_layer">
      <mxGeometry x="20" y="260" width="80" height="30" as="geometry"/>
    </mxCell>
    
    <mxCell id="libur_logic" value="Validasi&amp;#xa;Tanggal Libur" style="rounded=1;whiteSpace=wrap;html=1;fillColor=#fff2cc;strokeColor=#d6b656;" vertex="1" parent="logic_layer">
      <mxGeometry x="20" y="260" width="80" height="30" as="geometry"/>
    </mxCell>
    
    <mxCell id="libur_db" value="tb_dayoff" style="shape=cylinder3;whiteSpace=wrap;html=1;boundedLbl=1;backgroundOutline=1;size=15;fillColor=#ffe6cc;strokeColor=#d79b00;" vertex="1" parent="db_layer">
      <mxGeometry x="20" y="260" width="80" height="50" as="geometry"/>
    </mxCell>

    <!-- 4. Generate Laporan Absensi Harian -->
    <mxCell id="laporan_title" value="4. GENERATE LAPORAN ABSENSI HARIAN" style="text;html=1;strokeColor=none;fillColor=none;align=center;verticalAlign=middle;whiteSpace=wrap;rounded=0;fontSize=14;fontStyle=1;" vertex="1" parent="1">
      <mxGeometry x="40" y="360" width="700" height="20" as="geometry"/>
    </mxCell>
    
    <mxCell id="laporan_user" value="Admin" style="rounded=1;whiteSpace=wrap;html=1;fillColor=#d5e8d4;strokeColor=#82b366;" vertex="1" parent="user_layer">
      <mxGeometry x="20" y="350" width="80" height="30" as="geometry"/>
    </mxCell>
    
    <mxCell id="laporan_ui" value="Filter &amp; Print&amp;#xa;Laporan" style="rounded=1;whiteSpace=wrap;html=1;fillColor=#dae8fc;strokeColor=#6c8ebf;" vertex="1" parent="ui_layer">
      <mxGeometry x="20" y="350" width="80" height="30" as="geometry"/>
    </mxCell>
    
    <mxCell id="laporan_logic" value="Generate&amp;#xa;Laporan Harian" style="rounded=1;whiteSpace=wrap;html=1;fillColor=#fff2cc;strokeColor=#d6b656;" vertex="1" parent="logic_layer">
      <mxGeometry x="20" y="350" width="80" height="30" as="geometry"/>
    </mxCell>
    
    <mxCell id="laporan_db" value="tb_detail" style="shape=cylinder3;whiteSpace=wrap;html=1;boundedLbl=1;backgroundOutline=1;size=15;fillColor=#ffe6cc;strokeColor=#d79b00;" vertex="1" parent="db_layer">
      <mxGeometry x="20" y="350" width="80" height="50" as="geometry"/>
    </mxCell>

    <!-- 5. Edit Data Absensi -->
    <mxCell id="edit_title" value="5. EDIT DATA ABSENSI" style="text;html=1;strokeColor=none;fillColor=none;align=center;verticalAlign=middle;whiteSpace=wrap;rounded=0;fontSize=14;fontStyle=1;" vertex="1" parent="1">
      <mxGeometry x="40" y="450" width="700" height="20" as="geometry"/>
    </mxCell>
    
    <mxCell id="edit_user" value="Admin" style="rounded=1;whiteSpace=wrap;html=1;fillColor=#d5e8d4;strokeColor=#82b366;" vertex="1" parent="user_layer">
      <mxGeometry x="20" y="440" width="80" height="30" as="geometry"/>
    </mxCell>
    
    <mxCell id="edit_ui" value="Form Edit&amp;#xa;Absensi" style="rounded=1;whiteSpace=wrap;html=1;fillColor=#dae8fc;strokeColor=#6c8ebf;" vertex="1" parent="ui_layer">
      <mxGeometry x="20" y="440" width="80" height="30" as="geometry"/>
    </mxCell>
    
    <mxCell id="edit_logic" value="Update Data&amp;#xa;Absensi" style="rounded=1;whiteSpace=wrap;html=1;fillColor=#fff2cc;strokeColor=#d6b656;" vertex="1" parent="logic_layer">
      <mxGeometry x="20" y="440" width="80" height="30" as="geometry"/>
    </mxCell>
    
    <mxCell id="edit_db" value="tb_detail" style="shape=cylinder3;whiteSpace=wrap;html=1;boundedLbl=1;backgroundOutline=1;size=15;fillColor=#ffe6cc;strokeColor=#d79b00;" vertex="1" parent="db_layer">
      <mxGeometry x="20" y="440" width="80" height="50" as="geometry"/>
    </mxCell>

    <!-- 6. Login Admin/User -->
    <mxCell id="login_title" value="6. LOGIN ADMIN/USER" style="text;html=1;strokeColor=none;fillColor=none;align=center;verticalAlign=middle;whiteSpace=wrap;rounded=0;fontSize=14;fontStyle=1;" vertex="1" parent="1">
      <mxGeometry x="40" y="540" width="700" height="20" as="geometry"/>
    </mxCell>
    
    <mxCell id="login_user" value="Admin/&amp;#xa;Pegawai" style="rounded=1;whiteSpace=wrap;html=1;fillColor=#d5e8d4;strokeColor=#82b366;" vertex="1" parent="user_layer">
      <mxGeometry x="20" y="530" width="80" height="30" as="geometry"/>
    </mxCell>
    
    <mxCell id="login_ui" value="Halaman&amp;#xa;Login" style="rounded=1;whiteSpace=wrap;html=1;fillColor=#dae8fc;strokeColor=#6c8ebf;" vertex="1" parent="ui_layer">
      <mxGeometry x="20" y="530" width="80" height="30" as="geometry"/>
    </mxCell>
    
    <mxCell id="login_logic" value="Validasi&amp;#xa;Kredensial" style="rounded=1;whiteSpace=wrap;html=1;fillColor=#fff2cc;strokeColor=#d6b656;" vertex="1" parent="logic_layer">
      <mxGeometry x="20" y="530" width="80" height="30" as="geometry"/>
    </mxCell>
    
    <mxCell id="login_db" value="tb_pengguna" style="shape=cylinder3;whiteSpace=wrap;html=1;boundedLbl=1;backgroundOutline=1;size=15;fillColor=#ffe6cc;strokeColor=#d79b00;" vertex="1" parent="db_layer">
      <mxGeometry x="20" y="530" width="80" height="50" as="geometry"/>
    </mxCell>

    <!-- 7. Reset Password -->
    <mxCell id="reset_title" value="7. RESET PASSWORD" style="text;html=1;strokeColor=none;fillColor=none;align=center;verticalAlign=middle;whiteSpace=wrap;rounded=0;fontSize=14;fontStyle=1;" vertex="1" parent="1">
      <mxGeometry x="40" y="630" width="700" height="20" as="geometry"/>
    </mxCell>
    
    <mxCell id="reset_user" value="Admin/&amp;#xa;Pegawai" style="rounded=1;whiteSpace=wrap;html=1;fillColor=#d5e8d4;strokeColor=#82b366;" vertex="1" parent="user_layer">
      <mxGeometry x="20" y="620" width="80" height="30" as="geometry"/>
    </mxCell>
    
    <mxCell id="reset_ui" value="Form Reset&amp;#xa;Password" style="rounded=1;whiteSpace=wrap;html=1;fillColor=#dae8fc;strokeColor=#6c8ebf;" vertex="1" parent="ui_layer">
      <mxGeometry x="20" y="620" width="80" height="30" as="geometry"/>
    </mxCell>
    
    <mxCell id="reset_logic" value="Generate Token&amp;#xa;&amp; Email" style="rounded=1;whiteSpace=wrap;html=1;fillColor=#fff2cc;strokeColor=#d6b656;" vertex="1" parent="logic_layer">
      <mxGeometry x="20" y="620" width="80" height="30" as="geometry"/>
    </mxCell>
    
    <mxCell id="reset_db" value="tb_pengguna&amp;#xa;password_resets" style="shape=cylinder3;whiteSpace=wrap;html=1;boundedLbl=1;backgroundOutline=1;size=15;fillColor=#ffe6cc;strokeColor=#d79b00;" vertex="1" parent="db_layer">
      <mxGeometry x="20" y="620" width="80" height="50" as="geometry"/>
    </mxCell>

    <!-- 8. Menambahkan Data Kartu Tidak Dikenal -->
    <mxCell id="anonim_title" value="8. MENAMBAHKAN DATA KARTU TIDAK DIKENAL" style="text;html=1;strokeColor=none;fillColor=none;align=center;verticalAlign=middle;whiteSpace=wrap;rounded=0;fontSize=14;fontStyle=1;" vertex="1" parent="1">
      <mxGeometry x="40" y="720" width="700" height="20" as="geometry"/>
    </mxCell>
    
    <mxCell id="anonim_user" value="Admin" style="rounded=1;whiteSpace=wrap;html=1;fillColor=#d5e8d4;strokeColor=#82b366;" vertex="1" parent="user_layer">
      <mxGeometry x="20" y="710" width="80" height="30" as="geometry"/>
    </mxCell>
    
    <mxCell id="anonim_ui" value="Data Kartu&amp;#xa;Tidak Dikenal" style="rounded=1;whiteSpace=wrap;html=1;fillColor=#dae8fc;strokeColor=#6c8ebf;" vertex="1" parent="ui_layer">
      <mxGeometry x="20" y="710" width="80" height="30" as="geometry"/>
    </mxCell>
    
    <mxCell id="anonim_logic" value="Transfer Data&amp;#xa;Anonim" style="rounded=1;whiteSpace=wrap;html=1;fillColor=#fff2cc;strokeColor=#d6b656;" vertex="1" parent="logic_layer">
      <mxGeometry x="20" y="710" width="80" height="30" as="geometry"/>
    </mxCell>
    
    <mxCell id="anonim_db" value="tb_anonim&amp;#xa;tb_pengguna" style="shape=cylinder3;whiteSpace=wrap;html=1;boundedLbl=1;backgroundOutline=1;size=15;fillColor=#ffe6cc;strokeColor=#d79b00;" vertex="1" parent="db_layer">
      <mxGeometry x="20" y="710" width="80" height="50" as="geometry"/>
    </mxCell>

    <!-- 9. Absensi dengan Kartu RFID -->
    <mxCell id="rfid_title" value="9. ABSENSI DENGAN KARTU RFID" style="text;html=1;strokeColor=none;fillColor=none;align=center;verticalAlign=middle;whiteSpace=wrap;rounded=0;fontSize=14;fontStyle=1;" vertex="1" parent="1">
      <mxGeometry x="40" y="810" width="840" height="20" as="geometry"/>
    </mxCell>
    
    <mxCell id="rfid_user" value="Pegawai" style="rounded=1;whiteSpace=wrap;html=1;fillColor=#d5e8d4;strokeColor=#82b366;" vertex="1" parent="user_layer">
      <mxGeometry x="20" y="800" width="80" height="30" as="geometry"/>
    </mxCell>
    
    <mxCell id="rfid_ui" value="Notifikasi&amp;#xa;Absensi" style="rounded=1;whiteSpace=wrap;html=1;fillColor=#dae8fc;strokeColor=#6c8ebf;" vertex="1" parent="ui_layer">
      <mxGeometry x="20" y="800" width="80" height="30" as="geometry"/>
    </mxCell>
    
    <mxCell id="rfid_logic" value="Validasi Kartu&amp;#xa;&amp; Timestamp" style="rounded=1;whiteSpace=wrap;html=1;fillColor=#fff2cc;strokeColor=#d6b656;" vertex="1" parent="logic_layer">
      <mxGeometry x="20" y="800" width="80" height="30" as="geometry"/>
    </mxCell>
    
    <mxCell id="rfid_db" value="tb_pengguna&amp;#xa;tb_detail&amp;#xa;tb_anonim" style="shape=cylinder3;whiteSpace=wrap;html=1;boundedLbl=1;backgroundOutline=1;size=15;fillColor=#ffe6cc;strokeColor=#d79b00;" vertex="1" parent="db_layer">
      <mxGeometry x="20" y="800" width="80" height="60" as="geometry"/>
    </mxCell>
    
    <mxCell id="rfid_reader" value="RFID&amp;#xa;Reader" style="ellipse;whiteSpace=wrap;html=1;fillColor=#f8cecc;strokeColor=#b85450;" vertex="1" parent="rfid_layer">
      <mxGeometry x="20" y="800" width="80" height="50" as="geometry"/>
    </mxCell>

    <!-- Arrows for flow 1 -->
    <mxCell id="arrow1_1" style="edgeStyle=orthogonalEdgeStyle;rounded=0;orthogonalLoop=1;jettySize=auto;html=1;entryX=0;entryY=0.5;" edge="1" parent="1" source="cuti_user" target="cuti_ui1">
      <mxGeometry relative="1" as="geometry"/>
    </mxCell>
    <mxCell id="arrow1_2" style="edgeStyle=orthogonalEdgeStyle;rounded=0;orthogonalLoop=1;jettySize=auto;html=1;entryX=0;entryY=0.5;" edge="1" parent="1" source="cuti_ui1" target="cuti_logic">
      <mxGeometry relative="1" as="geometry"/>
    </mxCell>
    <mxCell id="arrow1_3" style="edgeStyle=orthogonalEdgeStyle;rounded=0;orthogonalLoop=1;jettySize=auto;html=1;entryX=0;entryY=0.5;" edge="1" parent="1" source="cuti_logic" target="cuti_db">
      <mxGeometry relative="1" as="geometry"/>
    </mxCell>

    <!-- Arrows for flow 2 -->
    <mxCell id="arrow2_1" style="edgeStyle=orthogonalEdgeStyle;rounded=0;orthogonalLoop=1;jettySize=auto;html=1;entryX=0;entryY=0.5;" edge="1" parent="1" source="pegawai_user" target="pegawai_ui">
      <mxGeometry relative="1" as="geometry"/>
    </mxCell>
    <mxCell id="arrow2_2" style="edgeStyle=orthogonalEdgeStyle;rounded=0;orthogonalLoop=1;jettySize=auto;html=1;entryX=0;entryY=0.5;" edge="1" parent="1" source="pegawai_ui" target="pegawai_logic">
      <mxGeometry relative="1" as="geometry"/>
    </mxCell>
    <mxCell id="arrow2_3" style="edgeStyle=orthogonalEdgeStyle;rounded=0;orthogonalLoop=1;jettySize=auto;html=1;entryX=0;entryY=0.5;" edge="1" parent="1" source="pegawai_logic" target="pegawai_db">
      <mxGeometry relative="1" as="geometry"/>
    </mxCell>

    <!-- Arrows for flow 3 -->
    <mxCell id="arrow3_1" style="edgeStyle=orthogonalEdgeStyle;rounded=0;orthogonalLoop=1;jettySize=auto;html=1;entryX=0;entryY=0.5;" edge="1" parent="1" source="libur_user" target="libur_ui">
      <mxGeometry relative="1" as="geometry"/>
    </mxCell>
    <mxCell id="arrow3_2" style="edgeStyle=orthogonalEdgeStyle;rounded=0;orthogonalLoop=1;jettySize=auto;html=1;entryX=0;entryY=0.5;" edge="1" parent="1" source="libur_ui" target="libur_logic">
      <mxGeometry relative="1" as="geometry"/>
    </mxCell>
    <mxCell id="arrow3_3" style="edgeStyle=orthogonalEdgeStyle;rounded=0;orthogonalLoop=1;jettySize=auto;html=1;entryX=0;entryY=0.5;" edge="1" parent="1" source="libur_logic" target="libur_db">
      <mxGeometry relative="1" as="geometry"/>
    </mxCell>

    <!-- Arrows for flow 4 -->
    <mxCell id="arrow4_1" style="edgeStyle=orthogonalEdgeStyle;rounded=0;orthogonalLoop=1;jettySize=auto;html=1;entryX=0;entryY=0.5;" edge="1" parent="1" source="laporan_user" target="laporan_ui">
      <mxGeometry relative="1" as="geometry"/>
    </mxCell>
    <mxCell id="arrow4_2" style="edgeStyle=orthogonalEdgeStyle;rounded=0;orthogonalLoop=1;jettySize=auto;html=1;entryX=0;entryY=0.5;" edge="1" parent="1" source="laporan_ui" target="laporan_logic">
      <mxGeometry relative="1" as="geometry"/>
    </mxCell>
    <mxCell id="arrow4_3" style="edgeStyle=orthogonalEdgeStyle;rounded=0;orthogonalLoop=1;jettySize=auto;html=1;entryX=0;entryY=0.5;" edge="1" parent="1" source="laporan_logic" target="laporan_db">
      <mxGeometry relative="1" as="geometry"/>
    </mxCell>

    <!-- Arrows for flow 5 -->
    <mxCell id="arrow5_1" style="edgeStyle=orthogonalEdgeStyle;rounded=0;orthogonalLoop=1;jettySize=auto;html=1;entryX=0;entryY=0.5;" edge="1" parent="1" source="edit_user" target="edit_ui">
      <mxGeometry relative="1" as="geometry"/>
    </mxCell>
    <mxCell id="arrow5_2" style="edgeStyle=orthogonalEdgeStyle;rounded=0;orthogonalLoop=1;jettySize=auto;html=1;entryX=0;entryY=0.5;" edge="1" parent="1" source="edit_ui" target="edit_logic">
      <mxGeometry relative="1" as="geometry"/>
    </mxCell>
    <mxCell id="arrow5_3" style="edgeStyle=orthogonalEdgeStyle;rounded=0;orthogonalLoop=1;jettySize=auto;html=1;entryX=0;entryY=0.5;" edge="1" parent="1" source="edit_logic" target="edit_db">
      <mxGeometry relative="1" as="geometry"/>
    </mxCell>

    <!-- Arrows for flow 6 -->
    <mxCell id="arrow6_1" style="edgeStyle=orthogonalEdgeStyle;rounded=0;orthogonalLoop=1;jettySize=auto;html=1;entryX=0;entryY=0.5;" edge="1" parent="1" source="login_user" target="login_ui">
      <mxGeometry relative="1" as="geometry"/>
    </mxCell>
    <mxCell id="arrow6_2" style="edgeStyle=orthogonalEdgeStyle;rounded=0;orthogonalLoop=1;jettySize=auto;html=1;entryX=0;entryY=0.5;" edge="1" parent="1" source="login_ui" target="login_logic">
      <mxGeometry relative="1" as="geometry"/>
    </mxCell>
    <mxCell id="arrow6_3" style="edgeStyle=orthogonalEdgeStyle;rounded=0;orthogonalLoop=1;jettySize=auto;html=1;entryX=0;entryY=0.5;" edge="1" parent="1" source="login_logic" target="login_db">
      <mxGeometry relative="1" as="geometry"/>
    </mxCell>

    <!-- Arrows for flow 7 -->
    <mxCell id="arrow7_1" style="edgeStyle=orthogonalEdgeStyle;rounded=0;orthogonalLoop=1;jettySize=auto;html=1;entryX=0;entryY=0.5;" edge="1" parent="1" source="reset_user" target="reset_ui">
      <mxGeometry relative="1" as="geometry"/>
    </mxCell>
    <mxCell id="arrow7_2" style="edgeStyle=orthogonalEdgeStyle;rounded=0;orthogonalLoop=1;jettySize=auto;html=1;entryX=0;entryY=0.5;" edge="1" parent="1" source="reset_ui" target="reset_logic">
      <mxGeometry relative="1" as="geometry"/>
    </mxCell>
    <mxCell id="arrow7_3" style="edgeStyle=orthogonalEdgeStyle;rounded=0;orthogonalLoop=1;jettySize=auto;html=1;entryX=0;entryY=0.5;" edge="1" parent="1" source="reset_logic" target="reset_db">
      <mxGeometry relative="1" as="geometry"/>
    </mxCell>

    <!-- Arrows for flow 8 -->
    <mxCell id="arrow8_1" style="edgeStyle=orthogonalEdgeStyle;rounded=0;orthogonalLoop=1;jettySize=auto;html=1;entryX=0;entryY=0.5;" edge="1" parent="1" source="anonim_user" target="anonim_ui">
      <mxGeometry relative="1" as="geometry"/>
    </mxCell>
    <mxCell id="arrow8_2" style="edgeStyle=orthogonalEdgeStyle;rounded=0;orthogonalLoop=1;jettySize=auto;html=1;entryX=0;entryY=0.5;" edge="1" parent="1" source="anonim_ui" target="anonim_logic">
      <mxGeometry relative="1" as="geometry"/>
    </mxCell>
    <mxCell id="arrow8_3" style="edgeStyle=orthogonalEdgeStyle;rounded=0;orthogonalLoop=1;jettySize=auto;html=1;entryX=0;entryY=0.5;" edge="1" parent="1" source="anonim_logic" target="anonim_db">
      <mxGeometry relative="1" as="geometry"/>
    </mxCell>

    <!-- Arrows for flow 9 (RFID) -->
    <mxCell id="arrow9_1" style="edgeStyle=orthogonalEdgeStyle;rounded=0;orthogonalLoop=1;jettySize=auto;html=1;entryX=0;entryY=0.5;" edge="1" parent="1" source="rfid_user" target="rfid_reader">
      <mxGeometry relative="1" as="geometry"/>
    </mxCell>
    <mxCell id="arrow9_2" style="edgeStyle=orthogonalEdgeStyle;rounded=0;orthogonalLoop=1;jettySize=auto;html=1;entryX=1;entryY=0.5;" edge="1" parent="1" source="rfid_reader" target="rfid_logic">
      <mxGeometry relative="1" as="geometry"/>
    </mxCell>
    <mxCell id="arrow9_3" style="edgeStyle=orthogonalEdgeStyle;rounded=0;orthogonalLoop=1;jettySize=auto;html=1;entryX=0;entryY=0.5;" edge="1" parent="1" source="rfid_logic" target="rfid_db">
      <mxGeometry relative="1" as="geometry"/>
    </mxCell>
    <mxCell id="arrow9_4" style="edgeStyle=orthogonalEdgeStyle;rounded=0;orthogonalLoop=1;jettySize=auto;html=1;entryX=1;entryY=0.5;" edge="1" parent="1" source="rfid_logic" target="rfid_ui">
      <mxGeometry relative="1" as="geometry"/>
    </mxCell>

    <!-- Legend -->
    <mxCell id="legend_title" value="KETERANGAN SISTEM" style="text;html=1;strokeColor=none;fillColor=none;align=center;verticalAlign=middle;whiteSpace=wrap;rounded=0;fontSize=16;fontStyle=1;" vertex="1" parent="1">
      <mxGeometry x="40" y="920" width="840" height="25" as="geometry"/>
    </mxCell>
    
    <mxCell id="legend_user" value="PENGGUNA: Admin dan Pegawai berinteraksi dengan sistem" style="text;html=1;strokeColor=none;fillColor=#d5e8d4;align=left;verticalAlign=middle;whiteSpace=wrap;rounded=1;" vertex="1" parent="1">
      <mxGeometry x="40" y="950" width="200" height="30" as="geometry"/>
    </mxCell>
    
    <mxCell id="legend_ui" value="ANTARMUKA: Halaman web dan form input pengguna" style="text;html=1;strokeColor=none;fillColor=#dae8fc;align=left;verticalAlign=middle;whiteSpace=wrap;rounded=1;" vertex="1" parent="1">
      <mxGeometry x="260" y="950" width="200" height="30" as="geometry"/>
    </mxCell>
    
    <mxCell id="legend_logic" value="LOGIKA: Proses validasi dan business logic sistem" style="text;html=1;strokeColor=none;fillColor=#fff2cc;align=left;verticalAlign=middle;whiteSpace=wrap;rounded=1;" vertex="1" parent="1">
      <mxGeometry x="480" y="950" width="200" height="30" as="geometry"/>
    </mxCell>
    
    <mxCell id="legend_db" value="DATABASE: Penyimpanan data dalam tabel database" style="text;html=1;strokeColor=none;fillColor=#ffe6cc;align=left;verticalAlign=middle;whiteSpace=wrap;rounded=1;" vertex="1" parent="1">
      <mxGeometry x="40" y="990" width="200" height="30" as="geometry"/>
    </mxCell>
    
    <mxCell id="legend_rfid" value="RFID READER: Hardware pembaca kartu RFID" style="text;html=1;strokeColor=none;fillColor=#f8cecc;align=left;verticalAlign=middle;whiteSpace=wrap;rounded=1;" vertex="1" parent="1">
      <mxGeometry x="260" y="990" width="200" height="30" as="geometry"/>
    </mxCell>

    <!-- Additional database tables info -->
    <mxCell id="db_info" value="TABEL DATABASE:&amp;#xa;• tb_pengguna: Data pegawai dan login&amp;#xa;• tb_detail: Data absensi harian&amp;#xa;• tb_dayoff: Data hari libur&amp;#xa;• tb_anonim: Kartu tidak dikenal&amp;#xa;• password_resets: Token reset password" style="text;html=1;strokeColor=#d79b00;fillColor=#ffe6cc;align=left;verticalAlign=top;whiteSpace=wrap;rounded=1;fontSize=10;" vertex="1" parent="1">
      <mxGeometry x="480" y="985" width="200" height="80" as="geometry"/>
    </mxCell>Geometry x="480" y="985" width="200" height="80" as="geometry"/>
    </mxCell>

  </root>
</mxGraphModel>
